<svg xmlns="http://www.w3.org/2000/svg" viewBox="112 174 184 202" fill-rule="evenodd" clip-rule="evenodd" role="img" aria-label="ProHelper">
  <path fill="#ff7415" d="M 180.5,180.5 C 180.5,183.167 180.5,185.833 180.5,188.5C 163.167,188.5 145.833,188.5 128.5,188.5C 127.503,204.992 127.17,221.658 127.5,238.5C 124.5,238.5 121.5,238.5 118.5,238.5C 118.5,219.167 118.5,199.833 118.5,180.5C 139.167,180.5 159.833,180.5 180.5,180.5 Z"/>
  <path fill="#ffffff" d="M 178.5,222.5 C 177.508,229.648 177.175,236.981 177.5,244.5C 168.833,244.5 160.167,244.5 151.5,244.5C 151.5,233.5 151.5,222.5 151.5,211.5C 162.833,211.5 174.167,211.5 185.5,211.5C 185.5,206.5 185.5,201.5 185.5,196.5C 212.197,196.074 238.864,196.574 265.5,198C 286.701,204.871 298.867,219.371 302,241.5C 302.856,258.529 302.523,275.529 301,292.5C 293.194,320.445 274.694,333.445 245.5,331.5C 245.5,322.833 245.5,314.167 245.5,305.5C 263.879,307.295 274.045,298.961 276,280.5C 276.667,268.833 276.667,257.167 276,245.5C 274.171,234.345 268.004,226.845 257.5,223C 231.169,222.5 204.835,222.333 178.5,222.5 Z"/>
  <path fill="#ff7415" d="M 201.5,244.5 C 216.5,244.5 231.5,244.5 246.5,244.5C 246.5,258.5 246.5,272.5 246.5,286.5C 231.5,286.5 216.5,286.5 201.5,286.5C 201.5,272.5 201.5,258.5 201.5,244.5 Z"/>
  <path fill="#ffffff" d="M 128.5,263.5 C 130.5,263.5 132.5,263.5 134.5,263.5C 134.5,271.833 134.5,280.167 134.5,288.5C 132.5,288.5 130.5,288.5 128.5,288.5C 128.5,280.167 128.5,271.833 128.5,263.5 Z"/>
  <path fill="#ffffff" d="M 186.5,306.5 C 203.167,306.5 219.833,306.5 236.5,306.5C 236.5,314.833 236.5,323.167 236.5,331.5C 219.833,331.5 203.167,331.5 186.5,331.5C 186.5,323.167 186.5,314.833 186.5,306.5 Z"/>
  <path fill="#ffffff" d="M 134.5,305.5 C 134.5,313.833 134.5,322.167 134.5,330.5C 132.833,330.5 131.167,330.5 129.5,330.5C 129.5,322.167 129.5,313.833 129.5,305.5C 131.167,305.5 132.833,305.5 134.5,305.5 Z"/>
  <path fill="#2456e8" d="M 263.5,346.5 C 271.5,346.5 279.5,346.5 287.5,346.5C 287.5,354.167 287.5,361.833 287.5,369.5C 279.5,369.5 271.5,369.5 263.5,369.5C 263.5,361.833 263.5,354.167 263.5,346.5 Z"/>
  <path fill="#ffffff" d="M 216.5,364.5 C 216.5,366.167 216.5,367.833 216.5,369.5C 207.5,369.5 198.5,369.5 189.5,369.5C 189.5,367.833 189.5,366.167 189.5,364.5C 198.5,364.5 207.5,364.5 216.5,364.5 Z"/>
  <path fill="#ffffff" d="M 175.5,364.5 C 175.5,366.167 175.5,367.833 175.5,369.5C 160.167,369.5 144.833,369.5 129.5,369.5C 129.5,361.833 129.5,354.167 129.5,346.5C 131.167,346.5 132.833,346.5 134.5,346.5C 134.5,352.5 134.5,358.5 134.5,364.5C 148.167,364.5 161.833,364.5 175.5,364.5 Z"/>
  <path fill="#ffffff" d="M 130.5,347.5 C 131.5,347.5 132.5,347.5 133.5,347.5C 133.5,353.5 133.5,359.5 133.5,365.5C 147.167,365.5 160.833,365.5 174.5,365.5C 174.5,366.5 174.5,367.5 174.5,368.5C 159.833,368.5 145.167,368.5 130.5,368.5C 130.5,361.5 130.5,354.5 130.5,347.5 Z"/>
  <path fill="#ffffff" d="M 229.5,364.5 C 235.833,364.5 242.167,364.5 248.5,364.5C 248.5,366.167 248.5,367.833 248.5,369.5C 242.167,369.5 235.833,369.5 229.5,369.5C 229.5,367.833 229.5,366.167 229.5,364.5 Z"/>
  <path fill="#ffffff" d="M151.5 254.5H177.5V346.5H151.5Z"/>
</svg>
